<?xml version="1.0" encoding="utf-8"?>
<svg version="1.1" id="Layer_1" x="0px" y="0px" viewBox="15 15 70 72" style="enable-background:new 0 0 100 100;" xmlns="http://www.w3.org/2000/svg">
  <style type="text/css">
	.st0{fill:#80191F;}
	.st1{fill:#FFFFFF;}
</style>
  <circle class="st0" cx="50" cy="50.9" r="32.8"/>
  <g>
    <path class="st1" d="M64.8,63.7H36.6c-0.5,0-0.9,0.2-1.3,0.5v1.4c0-0.7,0.6-1.3,1.3-1.3h28.2v3.8H42.7v0.6h22.4&#10;&#9;&#9;c0.1,0,0.2,0,0.2-0.1c0.1-0.1,0.1-0.1,0.1-0.2v-2.2c0,0.2-0.1,0.3-0.3,0.3c-0.2,0-0.3-0.1-0.3-0.3V63.7 M34.7,65.6L34.7,65.6v1.2&#10;&#9;&#9;c0,1,0.8,1.9,1.9,1.9h1.3v-0.6h-1.3c-0.7,0-1.3-0.6-1.3-1.3v-0.6c0,0.2-0.1,0.3-0.3,0.3c-0.2,0-0.3-0.1-0.3-0.3V65.6"/>
    <path class="st1" d="M65.4,45.2h-0.6v18.5v2.5c0,0.2,0.1,0.3,0.3,0.3c0.2,0,0.3-0.1,0.3-0.3V45.2 M35.3,45.2h-0.6v20.4v0.6&#10;&#9;&#9;c0,0.2,0.1,0.3,0.3,0.3c0.2,0,0.3-0.1,0.3-0.3v-0.6v-1.4V45.2"/>
    <path class="st1" d="M42.7,66.5h-4.8v1.6v0.6v2.6c0,0.1,0.1,0.2,0.1,0.3c0,0,0.1,0,0.2,0c0,0,0.1,0,0.1,0l2-1l2,1c0,0,0.1,0,0.1,0&#10;&#9;&#9;c0.1,0,0.1,0,0.2,0c0.1-0.1,0.1-0.2,0.1-0.3h-0.3h0.3v-2.6v-0.6V66.5 M38.5,70.8v-4.3h3.6v4.3L40.4,70c0,0-0.1,0-0.1,0&#10;&#9;&#9;c0,0-0.1,0-0.1,0L38.5,70.8 M42.7,71.3L42.7,71.3"/>
    <path class="st1" d="M46.2,48.4c-0.1,0-0.2,0-0.2,0.1l-1.4,1.4c-0.1,0.1-0.1,0.3,0,0.4c0.1,0.1,0.1,0.1,0.2,0.1&#10;&#9;&#9;c0.1,0,0.2,0,0.2-0.1l1.4-1.4c0.1-0.1,0.1-0.3,0-0.4C46.4,48.4,46.3,48.4,46.2,48.4"/>
    <path class="st1" d="M53.8,48.4c-0.1,0-0.2,0-0.2,0.1c-0.1,0.1-0.1,0.3,0,0.4l1.4,1.4c0.1,0.1,0.1,0.1,0.2,0.1c0.1,0,0.2,0,0.2-0.1&#10;&#9;&#9;c0.1-0.1,0.1-0.3,0-0.4L54,48.5C54,48.4,53.9,48.4,53.8,48.4"/>
    <path class="st1" d="M57.5,45.2h-0.6V46h-5.5c-0.1,0-0.2,0-0.2,0.1s-0.1,0.1-0.1,0.2v10.3h-2.3V46.3c0-0.1,0-0.2-0.1-0.2&#10;&#9;&#9;S48.7,46,48.6,46h-5.5v-0.8h-0.6v1.1c0,0.1,0,0.2,0.1,0.2c0.1,0.1,0.1,0.1,0.2,0.1h5.5v10.3c0,0.1,0,0.2,0.1,0.2&#10;&#9;&#9;c0.1,0.1,0.1,0.1,0.2,0.1h2.9c0.1,0,0.2,0,0.2-0.1c0.1-0.1,0.1-0.1,0.1-0.2V46.6h5.5c0.1,0,0.2,0,0.2-0.1c0.1-0.1,0.1-0.1,0.1-0.2&#10;&#9;&#9;V45.2"/>
    <path class="st1" d="M60.8,65.9H37.2c-0.2,0-0.3,0.1-0.3,0.3c0,0.2,0.1,0.3,0.3,0.3h0.7h4.8h18.1c0.2,0,0.3-0.1,0.3-0.3&#10;&#9;&#9;C61.1,66,61,65.9,60.8,65.9"/>
    <path class="st1" d="M65.1,31H36.6c-1,0-1.9,0.8-1.9,1.9v0.6v0.6v11.1h0.6V34.1v-0.6v-0.6c0-0.7,0.6-1.3,1.3-1.3h28.2v1.9v2.2v9.6&#10;&#9;&#9;h0.6v-9.6v-2.2v-2.2c0-0.1,0-0.2-0.1-0.2C65.2,31,65.1,31,65.1,31"/>
    <path class="st1" d="M55.2,39.5c-0.1,0-0.2,0-0.2,0.1l-1.4,1.4c-0.1,0.1-0.1,0.3,0,0.4c0.1,0.1,0.1,0.1,0.2,0.1s0.2,0,0.2-0.1&#10;&#9;&#9;l1.4-1.4c0.1-0.1,0.1-0.3,0-0.4C55.3,39.5,55.3,39.5,55.2,39.5"/>
    <path class="st1" d="M44.9,39.4c-0.1,0-0.2,0-0.2,0.1c-0.1,0.1-0.1,0.3,0,0.4l1.4,1.4c0.1,0.1,0.1,0.1,0.2,0.1c0.1,0,0.2,0,0.2-0.1&#10;&#9;&#9;c0.1-0.1,0.1-0.3,0-0.4l-1.4-1.4C45,39.5,45,39.4,44.9,39.4"/>
    <path class="st1" d="M51.5,37.4h-2.9c-0.1,0-0.2,0-0.2,0.1c-0.1,0.1-0.1,0.1-0.1,0.2v5.4h-5.5c-0.1,0-0.2,0-0.2,0.1&#10;&#9;&#9;c-0.1,0.1-0.1,0.1-0.1,0.2v1.8h0.6v-1.5h5.5c0.1,0,0.2,0,0.2-0.1s0.1-0.1,0.1-0.2V38h2.3v5.4c0,0.1,0,0.2,0.1,0.2&#10;&#9;&#9;c0.1,0.1,0.1,0.1,0.2,0.1h5.5v1.5h0.6v-1.8c0-0.1,0-0.2-0.1-0.2c-0.1-0.1-0.1-0.1-0.2-0.1h-5.5v-5.4c0-0.1,0-0.2-0.1-0.2&#10;&#9;&#9;C51.6,37.5,51.5,37.4,51.5,37.4 M56.9,43.4h0.3H56.9"/>
  </g>
</svg>