<?xml version="1.0" encoding="utf-8"?>
<svg version="1.1" x="0px" y="0px" viewBox="15 15 70 72" style="enable-background:new 0 0 100 100;" xmlns="http://www.w3.org/2000/svg">
  <style type="text/css">
	.st0{fill:#FFFFFF;}
	.st1{fill:#80191F;}
</style>
  <g id="Layer_2">
    <circle class="st0" cx="50" cy="50.9" r="32.8"/>
  </g>
  <g id="Layer_1">
    <g>
      <path class="st1" d="M64.6,39.6H59c-0.1,0-0.2,0-0.2,0.1s-0.1,0.1-0.1,0.2v4.7l0.3,0.2h0c0.1,0,0.3,0.1,0.3,0.2l0,0v-4.8h5v8.3&#10;&#9;&#9;&#9;l0.3,0.2c0.1,0,0.2,0.1,0.3,0.2l0,0v-9.1c0-0.1,0-0.2-0.1-0.2C64.8,39.7,64.7,39.6,64.6,39.6"/>
      <path class="st1" d="M60.6,57.1h-7.5c-0.1,0-0.2,0-0.2,0.1c-0.1,0.1-0.1,0.1-0.1,0.2v14.2h0.6V57.7h6.9v13.9h0.6V57.4&#10;&#9;&#9;&#9;c0-0.1,0-0.2-0.1-0.2C60.7,57.1,60.6,57.1,60.6,57.1"/>
      <path class="st1" d="M54.9,29.2C54.9,29.2,54.9,29.2,54.9,29.2c-3.2,0-5.7,0.7-7.7,1.4c-2,0.7-3.6,1.4-4.9,1.4c0,0,0,0,0,0&#10;&#9;&#9;&#9;c-0.6,0-1.2-0.2-1.7-0.6c-0.1,0-0.1-0.1-0.2-0.1c-0.1,0-0.2,0-0.2,0.1c-0.1,0.1-0.1,0.3,0,0.4c0.6,0.5,1.3,0.7,2.1,0.7&#10;&#9;&#9;&#9;c0,0,0,0,0,0c1.5,0,3.1-0.7,5.1-1.4c2-0.7,4.5-1.4,7.5-1.4c3.1,0,4.7,1.1,5.6,2.4c0.9,1.3,1,2.9,1,3.6c0,0.2,0,0.3,0,0.4l0,0.1&#10;&#9;&#9;&#9;l0,0c0,0.2,0.1,0.3,0.3,0.3c0,0,0,0,0,0c0.2,0,0.3-0.1,0.3-0.3c0,0,0-0.2,0-0.6c0-0.9-0.1-2.5-1.1-4C60,30.4,58.1,29.2,54.9,29.2"/>
      <path class="st1" d="M32.5,32.6c0,0-0.1,0-0.1,0c-0.1,0.1-0.2,0.3-0.1,0.4c0.9,1.7,2.2,2.7,3.5,3.3c1.3,0.6,2.7,0.8,3.9,0.8&#10;&#9;&#9;&#9;c1.8,0,3.2-0.4,3.2-0.4c0.2,0,0.3-0.2,0.2-0.4c0-0.1-0.2-0.2-0.3-0.2c0,0-0.1,0-0.1,0l-0.1,0c-0.3,0.1-1.5,0.4-3,0.4h0&#10;&#9;&#9;&#9;c-1.1,0-2.4-0.2-3.6-0.7c-1.2-0.5-2.4-1.5-3.2-3C32.7,32.7,32.6,32.6,32.5,32.6"/>
      <path class="st1" d="M50,38.6c-0.1,0-0.1,0-0.2,0.1l-8.8,6.2c0,0,0.1,0,0.2,0h1l7.8-5.6l7.8,5.6h1.1l-0.3-0.2l-8.5-6&#10;&#9;&#9;&#9;C50.2,38.6,50.1,38.6,50,38.6 M49.9,39.1l0.2-0.2L49.9,39.1 M41,44.9l-5.7,4c0,0,0.1-0.1,0.2-0.1h1l4.8-3.4h-0.1&#10;&#9;&#9;&#9;c-0.2,0-0.3-0.1-0.3-0.3C40.9,45,41,44.9,41,44.9 M59.3,45C59.3,45.1,59.3,45.1,59.3,45c0,0.2-0.1,0.4-0.3,0.4h-0.2l4.8,3.4h1&#10;&#9;&#9;&#9;c0,0,0,0,0,0l-0.3-0.2L59.3,45L59.3,45 M35.4,48.9l-5.3,3.7C30,52.7,29.9,52.8,30,53c0,0.1,0.2,0.2,0.3,0.2h4.9v-0.3&#10;&#9;&#9;&#9;c0-0.1,0-0.2,0.1-0.2c0.1-0.1,0.1-0.1,0.2-0.1h-4.2l4.4-3.1h-0.1c-0.2,0-0.3-0.1-0.3-0.3C35.2,49,35.3,48.9,35.4,48.9 M64.9,49&#10;&#9;&#9;&#9;c0,0,0,0.1,0,0.1c0,0.2-0.1,0.3-0.3,0.3h-0.2l4.4,3.1h-4.2c0.1,0,0.2,0,0.2,0.1c0.1,0.1,0.1,0.1,0.1,0.2v0.3h4.9&#10;&#9;&#9;&#9;c0.1,0,0.3-0.1,0.3-0.2c0-0.1,0-0.3-0.1-0.3L64.9,49L64.9,49"/>
      <path class="st1" d="M64.6,52.6H35.5c-0.1,0-0.2,0-0.2,0.1c-0.1,0.1-0.1,0.1-0.1,0.2v0.3v18.7c0,0.1,0,0.2,0.1,0.2&#10;&#9;&#9;&#9;c0.1,0.1,0.1,0.1,0.2,0.1h29.2c0.1,0,0.2,0,0.2-0.1c0.1-0.1,0.1-0.1,0.1-0.2V53.2v-0.3c0-0.1,0-0.2-0.1-0.2&#10;&#9;&#9;&#9;C64.8,52.6,64.7,52.6,64.6,52.6 M64.3,52.9h0.3H64.3 M35.8,71.6V53.2h28.5v18.4h-3.4h-0.6h-6.9h-0.6H35.8"/>
      <path class="st1" d="M48.3,57.1h-4.6c0.2,0,0.3,0.1,0.3,0.3v0.3h4v3.6h0.3c0.2,0,0.3,0.1,0.3,0.3v-4.2c0-0.1,0-0.2-0.1-0.2&#10;&#9;&#9;&#9;C48.5,57.1,48.4,57.1,48.3,57.1 M43.7,57.1h-4.6c-0.1,0-0.2,0-0.2,0.1s-0.1,0.1-0.1,0.2v8.4c0,0.1,0,0.2,0.1,0.2s0.1,0.1,0.2,0.1&#10;&#9;&#9;&#9;h9.2c0.1,0,0.2,0,0.2-0.1c0.1-0.1,0.1-0.1,0.1-0.2h-0.3v-0.3v0.3h0.3v-4.2c0,0.2-0.1,0.3-0.3,0.3H48v3.6h-4v0.3&#10;&#9;&#9;&#9;c0,0.2-0.1,0.3-0.3,0.3c-0.2,0-0.3-0.1-0.3-0.3v-0.3h-4v-3.6h-0.3c-0.2,0-0.3-0.1-0.3-0.3c0-0.2,0.1-0.3,0.3-0.3h0.3v-3.6h4v-0.3&#10;&#9;&#9;&#9;C43.4,57.2,43.6,57.1,43.7,57.1 M48.6,65.8L48.6,65.8"/>
      <path class="st1" d="M43.7,57.1L43.7,57.1c-0.2,0-0.3,0.1-0.3,0.3v0.3v3.6H44v-3.6v-0.3C44,57.2,43.9,57.1,43.7,57.1 M44,61.9&#10;&#9;&#9;&#9;h-0.6v3.6v0.3c0,0.2,0.1,0.3,0.3,0.3c0.2,0,0.3-0.1,0.3-0.3v-0.3V61.9"/>
      <path class="st1" d="M48.3,61.3H48h-4h-0.6h-4h-0.3c-0.2,0-0.3,0.1-0.3,0.3c0,0.2,0.1,0.3,0.3,0.3h0.3h4H44h4h0.3&#10;&#9;&#9;&#9;c0.2,0,0.3-0.1,0.3-0.3C48.6,61.4,48.5,61.3,48.3,61.3"/>
      <path class="st1" d="M64.6,48.8h-1H36.5h-1c-0.1,0-0.1,0-0.2,0.1c0,0,0,0,0,0c-0.1,0.1-0.1,0.1-0.1,0.2c0,0.2,0.1,0.3,0.3,0.3h0.1&#10;&#9;&#9;&#9;h28.8h0.2c0.2,0,0.3-0.1,0.3-0.3c0,0,0-0.1,0-0.1C64.9,48.9,64.7,48.8,64.6,48.8C64.6,48.8,64.6,48.8,64.6,48.8"/>
      <path class="st1" d="M59,44.8L59,44.8h-1.1H42.2h-1c-0.1,0-0.1,0-0.2,0c0,0,0,0,0,0c-0.1,0.1-0.1,0.1-0.1,0.2&#10;&#9;&#9;&#9;c0,0.2,0.1,0.3,0.3,0.3h0.1h17.4H59c0.2,0,0.3-0.1,0.3-0.3c0,0,0,0,0-0.1C59.2,44.9,59.1,44.8,59,44.8"/>
      <path class="st1" d="M58.6,64.3c-0.4,0-0.7,0.3-0.7,0.7c0,0.4,0.3,0.7,0.7,0.7c0.4,0,0.7-0.3,0.7-0.7C59.3,64.6,59,64.3,58.6,64.3&#10;&#9;&#9;&#9;"/>
    </g>
  </g>
  <g id="Layer_3"/>
  <g id="Layer_4"/>
</svg>