<?xml version="1.0" encoding="UTF-8" standalone="no"?>
<!-- Generator: Adobe Illustrator 21.0.2, SVG Export Plug-In . SVG Version: 6.00 Build 0)  -->

<svg
   xmlns:dc="http://purl.org/dc/elements/1.1/"
   xmlns:cc="http://creativecommons.org/ns#"
   xmlns:rdf="http://www.w3.org/1999/02/22-rdf-syntax-ns#"
   xmlns:svg="http://www.w3.org/2000/svg"
   xmlns="http://www.w3.org/2000/svg"
   xmlns:sodipodi="http://sodipodi.sourceforge.net/DTD/sodipodi-0.dtd"
   xmlns:inkscape="http://www.inkscape.org/namespaces/inkscape"
   version="1.1"
   id="Layer_1"
   x="0px"
   y="0px"
   width="44.240818"
   height="48.029999"
   viewBox="0 0 44.240819 48.029998"
   xml:space="preserve"
   sodipodi:docname="ocLogoRed.svg"
   inkscape:export-filename="C:\Users\Ray\Google Drive\Mindfire\Campaigns\Enrollment Fuel\Oklahoma Christian\assets\img\oclogo-red.png"
   inkscape:export-xdpi="300.6745"
   inkscape:export-ydpi="300.6745"
   inkscape:version="0.92.2 (5c3e80d, 2017-08-06)"><metadata
     id="metadata83"><rdf:RDF><cc:Work
         rdf:about=""><dc:format>image/svg+xml</dc:format><dc:type
           rdf:resource="http://purl.org/dc/dcmitype/StillImage" /><dc:title></dc:title></cc:Work></rdf:RDF></metadata><defs
     id="defs81" /><sodipodi:namedview
     pagecolor="#ffffff"
     bordercolor="#666666"
     borderopacity="1"
     objecttolerance="10"
     gridtolerance="10"
     guidetolerance="10"
     inkscape:pageopacity="0"
     inkscape:pageshadow="2"
     inkscape:window-width="1366"
     inkscape:window-height="705"
     id="namedview79"
     showgrid="false"
     inkscape:zoom="8.1325842"
     inkscape:cx="22.792232"
     inkscape:cy="27.165689"
     inkscape:window-x="-8"
     inkscape:window-y="-8"
     inkscape:window-maximized="1"
     inkscape:current-layer="Layer_1" /><style
     type="text/css"
     id="style2">
	.st0{fill:#801919;}
	.st1{fill-rule:evenodd;clip-rule:evenodd;fill:#FFFFFF;}
	.st2{fill:#FFFFFF;}
</style><path
     style="fill:#801919;fill-opacity:1;stroke:none;stroke-width:1px;stroke-linecap:butt;stroke-linejoin:miter;stroke-opacity:1"
     d="M 22.120818,2.22 3.9356062,6.4587951 1.4763633,9.1639623 c 0,0 -0.80445428,28.3817167 0,29.6338777 C 2.2808175,40.05 2.2808175,40.05 2.2808175,40.05 L 4.4274548,42.486704 22.120818,46.93 40.82425,41.871893 42.914607,38.428953 V 10.639508 L 41.880818,7.51 39.471667,5.9669465 Z"
     id="path975"
     inkscape:connector-curvature="0" /><polygon
     style="opacity:0;fill:#ff08ff;fill-opacity:1"
     id="polygon4"
     points="2.28,40.05 2.03,8.02 22.12,2.22 41.88,7.51 42.47,40.05 22.12,46.93 "
     class="st0"
     transform="translate(8.1751783e-4)" /><g
     id="g68"
     style="fill:#ffffff;fill-opacity:1"
     transform="translate(8.1751783e-4)"><path
       style="fill:#ffffff;fill-opacity:1"
       inkscape:connector-curvature="0"
       id="path62"
       d="m 36.36,19.54 v 0 -4.99 c 0,-3.37 -2.73,-6.1 -6.1,-6.1 -3.37,0 -6.11,2.73 -6.11,6.1 v 19.4 c 0,3.37 2.73,6.1 6.11,6.1 3.37,0 6.1,-2.73 6.1,-6.1 v -6.21 0 h -4.31 v 6.35 c 0,0.99 -0.8,1.79 -1.79,1.79 -0.99,0 -1.79,-0.8 -1.79,-1.79 V 14.4 c 0,-0.99 0.8,-1.79 1.79,-1.79 0.99,0 1.79,0.8 1.79,1.79 v 5.14 z"
       class="st2" /><g
       id="g66"
       style="fill:#ffffff;fill-opacity:1"><path
         style="fill:#ffffff;fill-opacity:1"
         inkscape:connector-curvature="0"
         id="path64"
         d="m 20,14.54 c 0,-3.32 -2.7,-6.02 -6.02,-6.02 -3.32,0 -6.02,2.7 -6.02,6.02 v 19.4 c 0,3.32 2.7,6.02 6.02,6.02 3.32,0 6.02,-2.7 6.02,-6.02 z m -4.15,19.54 c 0,1.03 -0.84,1.87 -1.87,1.87 -1.03,0 -1.87,-0.84 -1.87,-1.87 V 14.4 c 0,-1.03 0.84,-1.87 1.87,-1.87 1.03,0 1.87,0.84 1.87,1.87 z"
         class="st2" /></g></g><path
     style="clip-rule:evenodd;fill:#ffffff;fill-opacity:1;fill-rule:evenodd"
     inkscape:connector-curvature="0"
     id="path70"
     d="m 44.240818,9.95 c 0,-0.23 -0.05,-0.51 -0.14,-0.82 -0.44,-1.71 -2.17,-4.28 -5.38,-4.25 l -16.53,-4.88 -0.07,0.02 -0.07,-0.02 -16.5300005,4.88 c -3.2,-0.03 -4.93999998,2.54 -5.37999998,4.25 -0.09,0.31 -0.14000000217,0.58 -0.14000000217,0.82 L 0.01081752,24.57 8.1751783e-4,37.96 C -0.04918248,40.53 2.2008175,43.37 4.9708175,43.55 c 0.16,0.02 0.32,0.03 0.49,0.03 l 15.6100005,4.45 h 0.28 v 0 h 0.76 0.76 v 0 h 0.28 l 15.61,-4.45 c 0.17,0 0.33,-0.01 0.49,-0.03 2.78,-0.18 5.02,-3.02 4.97,-5.59 l -0.01,-13.39 z m -2.58,26.44 c -0.02,1.81 -0.41,4.36 -3.07,4.66 -0.06,0 -0.12,0.01 -0.19,0.01 l -0.06,0.02 c -0.15,0.01 -0.3,0.02 -0.46,0.01 l -15.77,4.57 -15.7600005,-4.58 c -0.16,0 -0.31,0 -0.46,-0.01 l -0.06,-0.02 c -0.07,0 -0.13,0 -0.19,-0.01 -2.66,-0.31 -3.05,-2.85 -3.07,-4.66 l -0.01,-12.25 0.01,-12.6 c 0,-0.16 0,-0.34 0.01,-0.54 0.13,-1.43 0.8,-3.53 3.74,-3.64 L 19.900818,3.44 c 0.05,0.16 0.55,1.48 2.17,1.48 0.02,0 0.03,0 0.05,-0.01 0.02,0 0.03,0.01 0.05,0.01 1.62,0 2.12,-1.32 2.17,-1.48 l 13.58,3.92 c 2.94,0.1 3.61,2.21 3.74,3.64 0.01,0.19 0.01,0.38 0.01,0.54 l 0.01,12.6 z"
     class="st1" /></svg>