<?xml version="1.0" encoding="utf-8"?>
<svg viewBox="100.54544067382812 1509.6278076171875 435.4544982910156 74.8438720703125" width="435.4544982910156" height="74.8438720703125" xmlns="http://www.w3.org/2000/svg">
  <g transform="matrix(1.3333330154418945, 0, 0, -1.3333330154418945, 188.7562212730408, 1555.770656942368)" id="g148">
    <path id="path150" style="fill:#ffffff;fill-opacity:1;fill-rule:evenodd;stroke:none" d="m 0,0 c 0,-1.856 -0.552,-2.895 -1.952,-2.895 -1.268,0 -1.626,1.3 -1.626,2.895 v 13.599 c 0,1.27 0.521,2.504 1.757,2.504 1.333,0 1.821,-1.105 1.821,-2.504 z m 2.703,0 v 13.599 c 0,2.699 -1.369,4.782 -4.588,4.782 -2.929,0 -4.393,-2.308 -4.393,-4.782 L -6.278,0 c 0,-2.603 0.877,-5.173 4.261,-5.173 3.547,0 4.72,2.506 4.72,5.173"/>
  </g>
  <g transform="matrix(1.3333330154418945, 0, 0, -1.3333330154418945, 207.43834572512418, 1562.1463929304118)" id="g152">
    <path id="path154" style="fill:#ffffff;fill-opacity:1;fill-rule:evenodd;stroke:none" d="m 0,0 -3.33,12.366 3.274,7.398 H -2.708 L -6.125,12 h -0.113 v 7.764 H -8.667 V 0 h 2.429 V 7.113 L -4.996,9.826 -2.57,0 Z"/>
  </g>
  <g transform="matrix(1.3333330154418945, 0, 0, -1.3333330154418945, 218.99754707075766, 1562.1463929304118)" id="g156">
    <path id="path158" style="fill:#ffffff;fill-opacity:1;fill-rule:evenodd;stroke:none" d="M 0,0 V 1.978 H -4.041 V 19.764 H -6.469 V 0 Z"/>
  </g>
  <g transform="matrix(1.3333330154418945, 0, 0, -1.3333330154418945, 227.54087999480544, 1555.1471931424458)" id="g160">
    <path id="path162" style="fill:#ffffff;fill-opacity:1;fill-rule:evenodd;stroke:none" d="m 0,0 h -2.485 l 1.157,10.107 h 0.086 z M 2.964,-5.249 0.253,14.515 h -3.02 L -5.451,-5.249 h 2.37 l 0.371,3.075 h 2.963 l 0.336,-3.075 z"/>
  </g>
  <g transform="matrix(1.3333330154418945, 0, 0, -1.3333330154418945, 243.53393851900182, 1562.1463929304118)" id="g164">
    <path id="path166" style="fill:#ffffff;fill-opacity:1;fill-rule:evenodd;stroke:none" d="M 0,0 V 19.764 H -2.428 V 11.546 H -4.94 v 8.218 H -7.368 V 0 h 2.428 v 9.232 h 2.512 l 0,-9.232 z"/>
  </g>
  <g transform="matrix(1.3333330154418945, 0, 0, -1.3333330154418945, 254.52834100840846, 1556.8143934692378)" id="g168">
    <path id="path170" style="fill:#ffffff;fill-opacity:1;fill-rule:evenodd;stroke:none" d="m 0,0 c 0,-1.609 -0.48,-2.512 -1.693,-2.512 -1.104,0 -1.414,1.127 -1.414,2.512 v 11.799 c 0,1.104 0.452,2.177 1.525,2.177 1.158,0 1.582,-0.962 1.582,-2.177 z m 2.343,0 v 11.799 c 0,2.344 -1.186,4.154 -3.98,4.154 -2.542,0 -3.815,-2.005 -3.815,-4.154 V 0 c 0,-2.259 0.764,-4.492 3.699,-4.492 3.08,0 4.096,2.173 4.096,4.492"/>
  </g>
  <g transform="matrix(1.3333330154418945, 0, 0, -1.3333330154418945, 276.3567252897919, 1562.1463929304118)" id="g172">
    <path id="path174" style="fill:#ffffff;fill-opacity:1;fill-rule:evenodd;stroke:none" d="M 0,0 V 19.764 H -3.587 L -5.647,5.222 h -0.058 l -2.06,14.542 h -3.586 V 0 h 2.201 v 16.854 h 0.057 L -6.635,0 h 1.918 l 2.458,16.854 h 0.056 L -2.203,0 Z"/>
  </g>
  <g transform="matrix(1.3333330154418945, 0, 0, -1.3333330154418945, 285.91352639668906, 1555.1471931424458)" id="g176">
    <path id="path178" style="fill:#ffffff;fill-opacity:1;fill-rule:evenodd;stroke:none" d="m 0,0 h -2.487 l 1.159,10.107 h 0.085 z M 2.964,-5.249 0.254,14.515 H -2.767 L -5.45,-5.249 h 2.372 l 0.367,3.075 h 2.965 l 0.337,-3.075 z"/>
  </g>
  <g transform="matrix(1.3333330154418945, 0, 0, -1.3333330154418945, 311.43006084041554, 1541.7154641670857)" id="g180">
    <path id="path182" style="fill:#ffffff;fill-opacity:1;fill-rule:evenodd;stroke:none" d="M 0,0 V 3.058 C 0,5.204 -0.684,7.84 -4.261,7.84 -7.19,7.84 -8.719,5.431 -8.719,3.09 V -10.9 c 0,-2.375 1.203,-4.815 4.394,-4.815 3.382,0 4.227,2.668 4.227,3.741 v 4.979 h -2.6 v -4.329 c 0,-0.749 -0.23,-2.113 -1.627,-2.113 -1.435,0 -1.498,1.43 -1.498,2.147 V 3.383 c 0,0.648 0.356,2.179 1.562,2.179 1.366,0 1.756,-1.235 1.756,-2.147 l 0,-3.415 z"/>
  </g>
  <g transform="matrix(1.3333330154418945, 0, 0, -1.3333330154418945, 324.49526361735474, 1562.1463929304118)" id="g184">
    <path id="path186" style="fill:#ffffff;fill-opacity:1;fill-rule:evenodd;stroke:none" d="m 0,0 v 19.764 h -2.432 v -8.218 h -2.51 v 8.218 H -7.374 V 0 h 2.432 v 9.232 h 2.51 l 0,-9.232 z"/>
  </g>
  <g transform="matrix(1.3333330154418945, 0, 0, -1.3333330154418945, 334.9217951484024, 1544.5651949329695)" id="g188">
    <path id="path190" style="fill:#ffffff;fill-opacity:1;fill-rule:evenodd;stroke:none" d="m 0,0 c 0,-0.962 -0.509,-1.723 -1.44,-1.723 h -1.298 v 6.325 h 1.183 C -0.509,4.602 0,3.639 0,2.822 Z m 2.909,-13.186 c -0.253,0.309 -0.507,1.746 -0.507,2.822 v 4.066 c 0,1.355 -0.877,2.796 -1.809,3.332 v 0.084 C 1.666,-2.573 2.343,-1.16 2.343,0 v 3.586 c 0,1.241 -1.156,2.992 -3.273,2.992 h -4.239 v -19.764 h 2.431 v 9.262 h 1.016 c 1.156,0 1.662,-1.526 1.662,-2.994 v -3.502 c 0,-1.074 0.284,-2.401 0.569,-2.766 z"/>
  </g>
  <path id="path192" style="fill:#ffffff;fill-opacity:1;fill-rule:evenodd;stroke:none" d="M 259.089 68.104 L 256.662 68.104 L 256.662 48.34 L 259.089 48.34 Z" transform="matrix(1.3333330154418945, 0, 0, -1.3333330154418945, 0, 1626.5999755859373)"/>
  <g transform="matrix(1.3333330154418945, 0, 0, -1.3333330154418945, 358.6197875452345, 1556.4986586812338)" id="g194">
    <path id="path196" style="fill:#ffffff;fill-opacity:1;fill-rule:evenodd;stroke:none" d="m 0,0 c 0,4.857 -4.77,7.988 -4.77,10.897 0,1.922 0.168,2.994 1.298,2.994 0.819,0 1.327,-0.678 1.327,-2.713 V 9.204 h 2.117 v 1.89 c 0,3.556 -1.101,4.774 -3.246,4.774 -2.711,0 -3.781,-1.3 -3.781,-5.055 0,-3.956 4.713,-7.17 4.713,-10.703 0,-2.03 -0.425,-2.706 -1.469,-2.706 -1.018,0 -1.214,0.843 -1.269,2.762 V 2.738 H -7.426 V 0.137 c 0,-2.511 0.678,-4.713 3.729,-4.713 C -0.705,-4.576 0,-2.798 0,0"/>
  </g>
  <g transform="matrix(1.3333330154418945, 0, 0, -1.3333330154418945, 370.51126420227234, 1538.4289252371163)" id="g198">
    <path id="path200" style="fill:#ffffff;fill-opacity:1;fill-rule:evenodd;stroke:none" d="M 0,0 V 1.978 H -7.879 V 0 h 2.712 V -17.788 H -2.71 V 0 Z"/>
  </g>
  <path id="path202" style="fill:#ffffff;fill-opacity:1;fill-rule:evenodd;stroke:none" d="M 282.167 68.106 L 279.739 68.106 L 279.739 48.34 L 282.167 48.34 Z" transform="matrix(1.3333330154418945, 0, 0, -1.3333330154418945, 0, 1626.5999755859373)"/>
  <g transform="matrix(1.3333330154418945, 0, 0, -1.3333330154418945, 385.8896378144273, 1555.1471931424458)" id="g204">
    <path id="path206" style="fill:#ffffff;fill-opacity:1;fill-rule:evenodd;stroke:none" d="m 0,0 h -2.485 l 1.158,10.107 h 0.086 z M 2.966,-5.249 0.254,14.516 H -2.768 L -5.45,-5.249 h 2.371 l 0.368,3.075 h 2.965 l 0.338,-3.075 z"/>
  </g>
  <g transform="matrix(1.3333330154418945, 0, 0, -1.3333330154418945, 404.3345797058718, 1562.1463929304118)" id="g208">
    <path id="path210" style="fill:#ffffff;fill-opacity:1;fill-rule:evenodd;stroke:none" d="M 0,0 V 19.766 H -2.204 V 5.333 H -2.318 L -5.845,19.766 H -9.207 V 0 h 2.257 v 15.303 h 0.057 L -3.194,0 Z"/>
  </g>
  <g transform="matrix(1.3333330154418945, 0, 0, -1.3333330154418945, 427.173482138256, 1556.4663914363225)" id="g212">
    <path id="path214" style="fill:#ffffff;fill-opacity:1;fill-rule:evenodd;stroke:none" d="M 0,0 V 18.513 H -2.766 V 0 c 0,-1.073 0.099,-2.373 -1.658,-2.373 -1.692,0 -1.627,1.268 -1.627,2.373 v 18.513 h -2.8 V 0 c 0,-2.471 0.848,-4.651 4.427,-4.651 C -0.846,-4.651 0,-2.471 0,0"/>
  </g>
  <g transform="matrix(1.3333330154418945, 0, 0, -1.3333330154418945, 443.46469732964755, 1562.1463929304118)" id="g216">
    <path id="path218" style="fill:#ffffff;fill-opacity:1;fill-rule:evenodd;stroke:none" d="M 0,0 V 19.766 H -2.205 V 5.333 h -0.11 l -3.532,14.433 h -3.36 V 0 h 2.261 v 15.303 h 0.057 L -3.191,0 Z"/>
  </g>
  <path id="path220" style="fill:#ffffff;fill-opacity:1;fill-rule:evenodd;stroke:none" d="M 338.268 68.106 L 335.84 68.106 L 335.84 48.34 L 338.268 48.34 Z" transform="matrix(1.3333330154418945, 0, 0, -1.3333330154418945, 0, 1626.5999755859373)"/>
  <g transform="matrix(1.3333330154418945, 0, 0, -1.3333330154418945, 465.42880342112034, 1535.79212573557)" id="g222">
    <path id="path224" style="fill:#ffffff;fill-opacity:1;fill-rule:evenodd;stroke:none" d="m 0,0 h -2.395 l -2.009,-15.051 h -0.11 L -6.576,0 h -2.457 l 3.161,-19.766 h 2.852 z"/>
  </g>
  <g transform="matrix(1.3333330154418945, 0, 0, -1.3333330154418945, 476.49760774825705, 1562.1463929304118)" id="g226">
    <path id="path228" style="fill:#ffffff;fill-opacity:1;fill-rule:evenodd;stroke:none" d="m 0,0 v 1.978 h -4.182 v 7.284 h 3.39 v 2.088 h -3.39 v 6.438 h 4.012 v 1.978 H -6.61 L -6.61,0 Z"/>
  </g>
  <g transform="matrix(1.3333330154418945, 0, 0, -1.3333330154418945, 486.39722290102503, 1544.5651949329695)" id="g230">
    <path id="path232" style="fill:#ffffff;fill-opacity:1;fill-rule:evenodd;stroke:none" d="M 0,0 C 0,-0.962 -0.509,-1.723 -1.442,-1.723 H -2.74 v 6.325 h 1.186 C -0.509,4.602 0,3.639 0,2.823 Z M 2.907,-13.186 C 2.65,-12.877 2.4,-11.44 2.4,-10.364 v 4.066 c 0,1.355 -0.875,2.796 -1.809,3.335 v 0.081 C 1.665,-2.573 2.343,-1.16 2.343,0 v 3.586 c 0,1.241 -1.157,2.994 -3.28,2.994 h -4.232 v -19.766 h 2.429 v 9.262 h 1.018 c 1.155,0 1.665,-1.526 1.665,-2.994 v -3.502 c 0,-1.074 0.282,-2.401 0.563,-2.766 z"/>
  </g>
  <g transform="matrix(1.3333330154418945, 0, 0, -1.3333330154418945, 502.349326845142, 1556.4986586812338)" id="g234">
    <path id="path236" style="fill:#ffffff;fill-opacity:1;fill-rule:evenodd;stroke:none" d="m 0,0 c 0,4.857 -4.774,7.988 -4.774,10.897 0,1.922 0.172,2.994 1.303,2.994 0.818,0 1.326,-0.678 1.326,-2.713 V 9.204 h 2.117 v 1.89 c 0,3.556 -1.103,4.774 -3.248,4.774 -2.71,0 -3.782,-1.3 -3.782,-5.055 0,-3.956 4.718,-7.17 4.718,-10.703 0,-2.03 -0.427,-2.706 -1.472,-2.706 -1.018,0 -1.214,0.843 -1.273,2.762 V 2.738 H -7.426 V 0.137 c 0,-2.511 0.678,-4.713 3.728,-4.713 C -0.704,-4.576 0,-2.798 0,0"/>
  </g>
  <path id="path238" style="fill:#ffffff;fill-opacity:1;fill-rule:evenodd;stroke:none" d="M 381.755 68.106 L 379.329 68.106 L 379.329 48.34 L 381.755 48.34 Z" transform="matrix(1.3333330154418945, 0, 0, -1.3333330154418945, 0, 1626.5999755859373)"/>
  <g transform="matrix(1.3333330154418945, 0, 0, -1.3333330154418945, 521.9866919548949, 1538.4289252371163)" id="g240">
    <path id="path242" style="fill:#ffffff;fill-opacity:1;fill-rule:evenodd;stroke:none" d="M 0,0 V 1.978 H -7.878 V 0 h 2.709 V -17.788 H -2.71 L -2.71,0 Z"/>
  </g>
  <g transform="matrix(1.3333330154418945, 0, 0, -1.3333330154418945, 535.9998722076416, 1535.79212573557)" id="g244">
    <path id="path246" style="fill:#ffffff;fill-opacity:1;fill-rule:evenodd;stroke:none" d="M 0,0 H -2.6 L -4.747,-7.682 H -4.803 L -6.949,0 h -2.566 l 3.527,-11.181 v -8.585 h 2.458 v 8.637 z"/>
  </g>
  <g transform="matrix(1.3333330154418945, 0, 0, -1.3333330154418945, 165.55342732585268, 1566.3330577850973)" id="g248">
    <path id="path250" style="fill:#ffffff;fill-opacity:1;fill-rule:evenodd;stroke:none" d="m 0,0 c -0.021,-2.296 -0.548,-5.6 -4.412,-5.488 l -18.538,-5.377 -18.935,5.41 c -3.066,-0.105 -3.883,2.709 -3.833,5.496 l 0.027,29.006 c 0.005,1.596 -0.028,4.943 3.842,4.912 l 16.393,4.581 c 0,0 0.529,-1.762 2.548,-1.763 2.11,-0.002 2.503,1.772 2.503,1.772 l 16.028,-4.625 c 3.934,-0.139 4.386,-3.339 4.403,-4.918 z m -3.611,36.79 -19.318,5.739 -19.318,-5.705 c -4.376,0.036 -6.416,-4.073 -6.422,-5.876 l -0.03,-32.786 c -0.057,-3.149 2.837,-6.664 6.303,-6.544 l 18.323,-5.22 2.12,-0.002 18.194,5.188 c 4.367,-0.126 6.712,3.936 6.738,6.531 l 0.029,32.786 c -0.019,1.784 -2.173,5.731 -6.619,5.889"/>
  </g>
  <g transform="matrix(1.3333330154418945, 0, 0, -1.3333330154418945, 157.29303297367005, 1540.07466662534)" id="g252">
    <path id="path254" style="fill:#ffffff;fill-opacity:1;fill-rule:nonzero;stroke:none" d="m 0,0 h 0.004 v 5.837 c 0,3.94 -3.194,7.136 -7.135,7.136 -3.941,0 -7.136,-3.196 -7.136,-7.136 v -22.676 c 0,-3.94 3.195,-7.135 7.136,-7.135 3.941,0 7.135,3.195 7.135,7.135 v 7.263 H 0 -5.04 v -7.426 c 0,-1.156 -0.936,-2.092 -2.091,-2.092 -1.155,0 -2.091,0.936 -2.091,2.092 V 6.002 c 0,1.154 0.936,2.091 2.091,2.091 1.155,0 2.091,-0.937 2.091,-2.091 L -5.04,0 Z"/>
  </g>
  <g transform="matrix(1.3333330154418945, 0, 0, -1.3333330154418945, 125.31703758627555, 1562.7445220602674)" id="g256">
    <path id="path258" style="fill:#ffffff;fill-opacity:1;fill-rule:nonzero;stroke:none" d="m 0,0 c 0,-1.207 -0.982,-2.189 -2.189,-2.189 -1.206,0 -2.189,0.982 -2.189,2.189 v 23.005 c 0,1.206 0.983,2.187 2.189,2.187 1.207,0 2.189,-0.981 2.189,-2.187 z m 4.849,22.84 c 0,3.881 -3.157,7.038 -7.038,7.038 -3.881,0 -7.038,-3.157 -7.038,-7.038 V 0.163 c 0,-3.879 3.157,-7.037 7.038,-7.037 3.881,0 7.038,3.158 7.038,7.037 z"/>
  </g>
  <g transform="matrix(1.3333330154418945, 0, 0, -1.3333330154418945, 125.18717514978925, 1562.7445220602674)" id="g260">
    <path id="path262" style="fill:#ffffff;fill-opacity:1;fill-rule:nonzero;stroke:none" d="m 0,0 c 0,-1.155 -0.937,-2.092 -2.091,-2.092 -1.155,0 -2.091,0.937 -2.091,2.092 v 23.005 c 0,1.153 0.936,2.09 2.091,2.09 1.154,0 2.091,-0.937 2.091,-2.09 z m -2.091,29.975 c -3.941,0 -7.136,-3.196 -7.136,-7.135 V 0.163 c 0,-3.939 3.195,-7.134 7.136,-7.134 3.941,0 7.135,3.195 7.135,7.134 V 22.84 c 0,3.939 -3.194,7.135 -7.135,7.135"/>
  </g>
</svg>