<?xml version="1.0" encoding="utf-8"?>
<!-- Generator: Adobe Illustrator 21.1.0, SVG Export Plug-In . SVG Version: 6.00 Build 0)  -->
<svg version="1.1" xmlns="http://www.w3.org/2000/svg" xmlns:xlink="http://www.w3.org/1999/xlink" x="0px" y="0px"
	 viewBox="0 0 300 50" style="enable-background:new 0 0 300 50;" xml:space="preserve">
<style type="text/css">
	.st0{fill-rule:evenodd;clip-rule:evenodd;fill:#80191F;}
	.st1{fill:#80191F;}
</style>
<g id="Layer_2">
	<g>
		<g>
			<path class="st0" d="M71,30.8V19.2c0-2.3-1.2-4.1-3.9-4.1c-2.5,0-3.8,2-3.8,4.1v11.6c0,2.2,0.7,4.4,3.6,4.4
				C70,35.2,71,33.1,71,30.8z M68.7,30.8c0,1.6-0.5,2.5-1.7,2.5c-1.1,0-1.4-1.1-1.4-2.5V19.2c0-1.1,0.4-2.1,1.5-2.1
				c1.1,0,1.6,0.9,1.6,2.1V30.8z"/>
			<polygon class="st0" points="80.7,34.9 77.8,24.3 80.6,18 78.4,18 75.4,24.6 75.3,24.6 75.3,18 73.3,18 73.3,34.9 75.3,34.9 
				75.3,28.8 76.4,26.5 78.5,34.9 			"/>
			<polygon class="st0" points="88.1,34.9 88.1,33.2 84.6,33.2 84.6,18 82.6,18 82.6,34.9 			"/>
			<path class="st0" d="M96.1,34.9L93.8,18h-2.6l-2.3,16.9h2l0.3-2.6h2.5l0.3,2.6H96.1z M93.6,30.4h-2.1l1-8.6h0.1L93.6,30.4z"/>
			<polygon class="st0" points="103.8,34.9 103.8,18 101.7,18 101.7,25 99.6,25 99.6,18 97.5,18 97.5,34.9 99.6,34.9 99.6,27 
				101.7,27 101.7,34.9 			"/>
			<path class="st0" d="M112.8,31.5V21.4c0-2-1-3.5-3.4-3.5c-2.2,0-3.3,1.7-3.3,3.5v10.1c0,1.9,0.7,3.8,3.2,3.8
				C112,35.3,112.8,33.5,112.8,31.5z M110.8,31.5c0,1.4-0.4,2.1-1.4,2.1c-0.9,0-1.2-1-1.2-2.1V21.4c0-0.9,0.4-1.9,1.3-1.9
				c1,0,1.4,0.8,1.4,1.9V31.5z"/>
			<polygon class="st0" points="124.8,34.9 124.8,18 121.8,18 120,30.4 119.9,30.4 118.2,18 115.1,18 115.1,34.9 117,34.9 117,20.5 
				117.1,20.5 119.2,34.9 120.8,34.9 122.9,20.5 122.9,20.5 122.9,34.9 			"/>
			<path class="st0" d="M133.5,34.9L131.2,18h-2.6l-2.3,16.9h2l0.3-2.6h2.5l0.3,2.6H133.5z M130.9,30.4h-2.1l1-8.6h0.1L130.9,30.4z"
				/>
			<path class="st0" d="M147.3,21.8v-2.6c0-1.8-0.6-4.1-3.6-4.1c-2.5,0-3.8,2.1-3.8,4.1v11.9c0,2,1,4.1,3.8,4.1
				c2.9,0,3.6-2.3,3.6-3.2v-4.3H145v3.7c0,0.6-0.2,1.8-1.4,1.8c-1.2,0-1.3-1.2-1.3-1.8V18.9c0-0.6,0.3-1.9,1.3-1.9
				c1.2,0,1.5,1.1,1.5,1.8v2.9H147.3z"/>
			<polygon class="st0" points="155.7,34.9 155.7,18 153.6,18 153.6,25 151.4,25 151.4,18 149.4,18 149.4,34.9 151.4,34.9 151.4,27 
				153.6,27 153.6,34.9 			"/>
			<path class="st0" d="M164.8,34.9c-0.2-0.3-0.4-1.5-0.4-2.4V29c0-1.2-0.7-2.4-1.5-2.8v-0.1c0.9-0.3,1.5-1.5,1.5-2.5v-3.1
				c0-1.1-1-2.6-2.8-2.6h-3.6v16.9h2.1V27h0.9c1,0,1.4,1.3,1.4,2.6v3c0,0.9,0.2,2.1,0.5,2.4H164.8z M162.3,23.6
				c0,0.8-0.4,1.5-1.2,1.5H160v-5.4h1c0.9,0,1.3,0.8,1.3,1.5V23.6z"/>
			<rect x="167" y="18" class="st0" width="2.1" height="16.9"/>
			<path class="st0" d="M177.5,31.3c0-4.1-4.1-6.8-4.1-9.3c0-1.6,0.1-2.6,1.1-2.6c0.7,0,1.1,0.6,1.1,2.3v1.7h1.8v-1.6
				c0-3-0.9-4.1-2.8-4.1c-2.3,0-3.2,1.1-3.2,4.3c0,3.4,4,6.1,4,9.1c0,1.7-0.4,2.3-1.3,2.3c-0.9,0-1-0.7-1.1-2.4v-2.2h-2v2.2
				c0,2.1,0.6,4,3.2,4C176.9,35.2,177.5,33.7,177.5,31.3z"/>
			<polygon class="st0" points="185.1,19.7 185.1,18 178.4,18 178.4,19.7 180.7,19.7 180.7,34.9 182.8,34.9 182.8,19.7 			"/>
			<rect x="186.7" y="18" class="st0" width="2.1" height="16.9"/>
			<path class="st0" d="M197.5,34.9L195.2,18h-2.6l-2.3,16.9h2l0.3-2.6h2.5l0.3,2.6H197.5z M195,30.4h-2.1l1-8.6h0.1L195,30.4z"/>
			<polygon class="st0" points="206.8,34.9 206.8,18 204.9,18 204.9,30.3 204.8,30.3 201.8,18 198.9,18 198.9,34.9 200.9,34.9 
				200.9,21.8 200.9,21.8 204.1,34.9 			"/>
			<path class="st0" d="M221.4,31.3V15.4h-2.4v15.8c0,0.9,0.1,2-1.4,2c-1.4,0-1.4-1.1-1.4-2V15.4h-2.4v15.8c0,2.1,0.7,4,3.8,4
				C220.7,35.2,221.4,33.4,221.4,31.3z"/>
			<polygon class="st0" points="231.9,34.9 231.9,18 230,18 230,30.3 229.9,30.3 226.9,18 224,18 224,34.9 225.9,34.9 225.9,21.8 
				226,21.8 229.1,34.9 			"/>
			<rect x="234.6" y="18" class="st0" width="2.1" height="16.9"/>
			<polygon class="st0" points="245.9,18 243.9,18 242.2,30.9 242.1,30.9 240.3,18 238.2,18 240.9,34.9 243.4,34.9 			"/>
			<polygon class="st0" points="253,34.9 253,33.2 249.5,33.2 249.5,27 252.3,27 252.3,25.2 249.5,25.2 249.5,19.7 252.9,19.7 
				252.9,18 247.4,18 247.4,34.9 			"/>
			<path class="st0" d="M261.9,34.9c-0.2-0.3-0.4-1.5-0.4-2.4V29c0-1.2-0.7-2.4-1.5-2.8v-0.1c0.9-0.3,1.5-1.5,1.5-2.5v-3.1
				c0-1.1-1-2.6-2.8-2.6H255v16.9h2.1V27h0.9c1,0,1.4,1.3,1.4,2.6v3c0,0.9,0.2,2.1,0.5,2.4H261.9z M259.4,23.6
				c0,0.8-0.4,1.5-1.2,1.5H257v-5.4h1c0.9,0,1.3,0.8,1.3,1.5V23.6z"/>
			<path class="st0" d="M269.6,31.3c0-4.1-4.1-6.8-4.1-9.3c0-1.6,0.1-2.6,1.1-2.6c0.7,0,1.1,0.6,1.1,2.3v1.7h1.8v-1.6
				c0-3-0.9-4.1-2.8-4.1c-2.3,0-3.2,1.1-3.2,4.3c0,3.4,4,6.1,4,9.1c0,1.7-0.4,2.3-1.3,2.3c-0.9,0-1-0.7-1.1-2.4v-2.2h-2v2.2
				c0,2.1,0.6,4,3.2,4C269,35.2,269.6,33.7,269.6,31.3z"/>
			<rect x="271.8" y="18" class="st0" width="2.1" height="16.9"/>
			<polygon class="st0" points="282.2,19.7 282.2,18 275.4,18 275.4,19.7 277.8,19.7 277.8,34.9 279.9,34.9 279.9,19.7 			"/>
			<polygon class="st0" points="291.1,18 288.9,18 287.1,24.6 287,24.6 285.2,18 283,18 286,27.6 286,34.9 288.1,34.9 288.1,27.5 
							"/>
		</g>
		<g>
			<path class="st0" d="M50.8,6.2L34.3,1.2L17.8,6.1c-3.7,0-5.5,3.5-5.5,5l0,28c0,2.7,2.4,5.7,5.4,5.6l15.6,4.5l1.8,0l15.5-4.4
				c3.7,0.1,5.7-3.4,5.8-5.6l0-28C56.4,9.7,54.6,6.3,50.8,6.2z M53.8,37.6c0,2-0.5,4.8-3.8,4.7l-15.8,4.6l-16.2-4.6
				c-2.6,0.1-3.3-2.3-3.3-4.7l0-24.8c0-1.4,0-4.2,3.3-4.2l14-3.9c0,0,0.5,1.5,2.2,1.5c1.8,0,2.1-1.5,2.1-1.5l13.7,4
				c3.4,0.1,3.7,2.9,3.8,4.2L53.8,37.6z"/>
			<g>
				<path class="st1" d="M48.6,20.8L48.6,20.8l0-5c0-3.4-2.7-6.1-6.1-6.1c-3.4,0-6.1,2.7-6.1,6.1v19.4c0,3.4,2.7,6.1,6.1,6.1
					c3.4,0,6.1-2.7,6.1-6.1v-6.2h0h-4.3v6.3c0,1-0.8,1.8-1.8,1.8c-1,0-1.8-0.8-1.8-1.8V15.6c0-1,0.8-1.8,1.8-1.8
					c1,0,1.8,0.8,1.8,1.8v5.1H48.6z"/>
				<g>
					<path class="st1" d="M32.2,15.8c0-3.3-2.7-6-6-6c-3.3,0-6,2.7-6,6v19.4c0,3.3,2.7,6,6,6c3.3,0,6-2.7,6-6V15.8z M28.1,35.3
						c0,1-0.8,1.9-1.9,1.9c-1,0-1.9-0.8-1.9-1.9V15.6c0-1,0.8-1.9,1.9-1.9c1,0,1.9,0.8,1.9,1.9V35.3z"/>
				</g>
				<path class="st1" d="M26.2,9.7c-3.4,0-6.1,2.7-6.1,6.1v19.4c0,3.4,2.7,6.1,6.1,6.1c3.4,0,6.1-2.7,6.1-6.1V15.8
					C32.3,12.4,29.6,9.7,26.2,9.7z M28,35.3c0,1-0.8,1.8-1.8,1.8c-1,0-1.8-0.8-1.8-1.8V15.6c0-1,0.8-1.8,1.8-1.8
					c1,0,1.8,0.8,1.8,1.8V35.3z"/>
			</g>
		</g>
	</g>
</g>
<g id="Layer_1">
</g>
<g id="Layer_3">
</g>
<g id="Layer_4">
</g>
</svg>
