<?xml version="1.0" encoding="UTF-8" standalone="no"?>
<!-- Generator: Adobe Illustrator 21.0.2, SVG Export Plug-In . SVG Version: 6.00 Build 0)  -->

<svg
   xmlns:dc="http://purl.org/dc/elements/1.1/"
   xmlns:cc="http://creativecommons.org/ns#"
   xmlns:rdf="http://www.w3.org/1999/02/22-rdf-syntax-ns#"
   xmlns:svg="http://www.w3.org/2000/svg"
   xmlns="http://www.w3.org/2000/svg"
   xmlns:sodipodi="http://sodipodi.sourceforge.net/DTD/sodipodi-0.dtd"
   xmlns:inkscape="http://www.inkscape.org/namespaces/inkscape"
   version="1.1"
   id="Layer_1"
   x="0px"
   y="0px"
   width="279.37px"
   height="48.02px"
   viewBox="0 0 279.37 48.02"
   style="enable-background:new 0 0 279.37 48.02;"
   xml:space="preserve"
   sodipodi:docname="oclogo-white.svg"
   inkscape:version="0.92.2 (5c3e80d, 2017-08-06)"><metadata
     id="metadata83"><rdf:RDF><cc:Work
         rdf:about=""><dc:format>image/svg+xml</dc:format><dc:type
           rdf:resource="http://purl.org/dc/dcmitype/StillImage" /></cc:Work></rdf:RDF></metadata><defs
     id="defs81" /><sodipodi:namedview
     pagecolor="#ffffff"
     bordercolor="#666666"
     borderopacity="1"
     objecttolerance="10"
     gridtolerance="10"
     guidetolerance="10"
     inkscape:pageopacity="0"
     inkscape:pageshadow="2"
     inkscape:window-width="1366"
     inkscape:window-height="705"
     id="namedview79"
     showgrid="false"
     inkscape:zoom="2.8753027"
     inkscape:cx="127.03397"
     inkscape:cy="26.406946"
     inkscape:window-x="-8"
     inkscape:window-y="-8"
     inkscape:window-maximized="1"
     inkscape:current-layer="Layer_1" /><style
     type="text/css"
     id="style2">
	.st0{fill:#801919;}
	.st1{fill-rule:evenodd;clip-rule:evenodd;fill:#FFFFFF;}
	.st2{fill:#FFFFFF;}
</style><polygon
     style="fill:#801919;opacity:0"
     id="polygon4"
     points="42.47,40.05 22.12,46.93 2.28,40.05 2.03,8.02 22.12,2.22 41.88,7.51 "
     class="st0" /><g
     id="g74"><g
       id="g60"><path
         style="clip-rule:evenodd;fill:#ffffff;fill-rule:evenodd"
         inkscape:connector-curvature="0"
         id="path6"
         d="M 58.87,29.61 V 17.97 c 0,-2.31 -1.17,-4.09 -3.93,-4.09 -2.51,0 -3.76,1.97 -3.76,4.09 V 29.6 c 0,2.23 0.75,4.43 3.65,4.43 3.03,0 4.04,-2.14 4.04,-4.42 z m -2.32,0 c 0,1.59 -0.47,2.48 -1.67,2.48 -1.09,0 -1.39,-1.11 -1.39,-2.48 V 17.97 c 0,-1.09 0.45,-2.14 1.5,-2.14 1.14,0 1.56,0.95 1.56,2.14 z"
         class="st1" /><polygon
         style="clip-rule:evenodd;fill:#ffffff;fill-rule:evenodd"
         id="polygon8"
         points="68.49,16.79 66.22,16.79 63.3,23.43 63.2,23.43 63.2,16.79 61.13,16.79 61.13,33.7 63.2,33.7 63.2,27.61 64.27,25.29 66.34,33.7 68.54,33.7 65.69,23.12 "
         class="st1" /><polygon
         style="clip-rule:evenodd;fill:#ffffff;fill-rule:evenodd"
         id="polygon10"
         points="72.5,32.01 72.5,16.79 70.42,16.79 70.42,33.7 75.96,33.7 75.96,32.01 "
         class="st1" /><path
         style="clip-rule:evenodd;fill:#ffffff;fill-rule:evenodd"
         inkscape:connector-curvature="0"
         id="path12"
         d="M 83.98,33.7 81.66,16.79 h -2.58 l -2.3,16.91 h 2.03 l 0.32,-2.63 h 2.53 l 0.29,2.63 z m -2.54,-4.49 h -2.13 l 0.99,-8.65 h 0.07 z"
         class="st1" /><polygon
         style="clip-rule:evenodd;fill:#ffffff;fill-rule:evenodd"
         id="polygon14"
         points="89.62,16.79 89.62,23.82 87.48,23.82 87.48,16.79 85.4,16.79 85.4,33.7 87.48,33.7 87.48,25.8 89.62,25.8 89.62,33.7 91.7,33.7 91.7,16.79 "
         class="st1" /><path
         style="clip-rule:evenodd;fill:#ffffff;fill-rule:evenodd"
         inkscape:connector-curvature="0"
         id="path16"
         d="m 100.76,30.28 v -10.1 c 0,-2.01 -1.01,-3.55 -3.41,-3.55 -2.18,0 -3.26,1.72 -3.26,3.55 v 10.09 c 0,1.93 0.65,3.84 3.16,3.84 2.64,0.01 3.51,-1.85 3.51,-3.83 z m -2,0 c 0,1.38 -0.41,2.15 -1.45,2.15 -0.94,0 -1.21,-0.96 -1.21,-2.15 v -10.1 c 0,-0.94 0.39,-1.86 1.3,-1.86 0.99,0 1.35,0.82 1.35,1.86 v 10.1 z"
         class="st1" /><polygon
         style="clip-rule:evenodd;fill:#ffffff;fill-rule:evenodd"
         id="polygon18"
         points="109.69,16.79 107.93,29.23 107.88,29.23 106.12,16.79 103.05,16.79 103.05,33.7 104.93,33.7 104.93,19.28 104.98,19.28 107.09,33.7 108.73,33.7 110.83,19.28 110.88,19.28 110.88,33.7 112.76,33.7 112.76,16.79 "
         class="st1" /><path
         style="clip-rule:evenodd;fill:#ffffff;fill-rule:evenodd"
         inkscape:connector-curvature="0"
         id="path20"
         d="m 121.43,33.7 -2.32,-16.91 h -2.58 l -2.3,16.91 h 2.03 l 0.31,-2.63 h 2.54 l 0.29,2.63 z m -2.53,-4.49 h -2.13 l 0.99,-8.65 h 0.07 z"
         class="st1" /><path
         style="clip-rule:evenodd;fill:#ffffff;fill-rule:evenodd"
         inkscape:connector-curvature="0"
         id="path22"
         d="m 135.27,20.59 v -2.62 c 0,-1.84 -0.58,-4.09 -3.65,-4.09 -2.51,0 -3.81,2.06 -3.81,4.06 v 11.97 c 0,2.03 1.03,4.12 3.76,4.12 2.89,0 3.62,-2.28 3.62,-3.2 v -4.26 h -2.22 v 3.7 c 0,0.64 -0.2,1.81 -1.39,1.81 -1.23,0 -1.28,-1.22 -1.28,-1.84 V 17.7 c 0,-0.55 0.3,-1.86 1.34,-1.86 1.17,0 1.5,1.06 1.5,1.84 v 2.92 h 2.13 z"
         class="st1" /><polygon
         style="clip-rule:evenodd;fill:#ffffff;fill-rule:evenodd"
         id="polygon24"
         points="141.57,16.79 141.57,23.82 139.42,23.82 139.42,16.79 137.34,16.79 137.34,33.7 139.42,33.7 139.42,25.8 141.57,25.8 141.57,33.7 143.65,33.7 143.65,16.79 "
         class="st1" /><path
         style="clip-rule:evenodd;fill:#ffffff;fill-rule:evenodd"
         inkscape:connector-curvature="0"
         id="path26"
         d="m 152.83,33.7 c -0.22,-0.26 -0.43,-1.49 -0.43,-2.41 v -3.48 c 0,-1.16 -0.75,-2.39 -1.55,-2.85 v -0.07 c 0.92,-0.26 1.5,-1.47 1.5,-2.47 v -3.07 c 0,-1.06 -0.99,-2.56 -2.8,-2.56 h -3.63 V 33.7 H 148 v -7.92 h 0.87 c 0.99,0 1.42,1.31 1.42,2.56 v 3 c 0,0.92 0.24,2.05 0.49,2.37 h 2.05 z m -2.49,-11.28 c 0,0.82 -0.44,1.47 -1.23,1.47 H 148 v -5.41 h 1.01 c 0.89,0 1.33,0.82 1.33,1.52 z"
         class="st1" /><rect
         style="clip-rule:evenodd;fill:#ffffff;fill-rule:evenodd"
         id="rect28"
         height="16.91"
         width="2.0799999"
         class="st1"
         y="16.790001"
         x="155.02" /><path
         style="clip-rule:evenodd;fill:#ffffff;fill-rule:evenodd"
         inkscape:connector-curvature="0"
         id="path30"
         d="m 165.55,30.08 c 0,-4.16 -4.08,-6.83 -4.08,-9.32 0,-1.64 0.14,-2.56 1.11,-2.56 0.7,0 1.14,0.58 1.14,2.32 v 1.69 h 1.81 v -1.62 c 0,-3.04 -0.94,-4.08 -2.78,-4.08 -2.32,0 -3.24,1.11 -3.24,4.32 0,3.38 4.03,6.13 4.03,9.16 0,1.74 -0.36,2.32 -1.26,2.32 -0.87,0 -1.04,-0.72 -1.09,-2.36 v -2.2 h -2.01 v 2.22 c 0,2.15 0.58,4.03 3.19,4.03 2.57,-0.01 3.18,-1.53 3.18,-3.92 z"
         class="st1" /><polygon
         style="clip-rule:evenodd;fill:#ffffff;fill-rule:evenodd"
         id="polygon32"
         points="166.44,16.79 166.44,18.48 168.76,18.48 168.76,33.7 170.86,33.7 170.86,18.48 173.18,18.48 173.18,16.79 "
         class="st1" /><rect
         style="clip-rule:evenodd;fill:#ffffff;fill-rule:evenodd"
         id="rect34"
         height="16.91"
         width="2.0799999"
         class="st1"
         y="16.790001"
         x="174.77" /><path
         style="clip-rule:evenodd;fill:#ffffff;fill-rule:evenodd"
         inkscape:connector-curvature="0"
         id="path36"
         d="m 185.58,33.7 -2.32,-16.91 h -2.58 l -2.29,16.91 h 2.03 l 0.32,-2.63 h 2.54 l 0.29,2.63 z m -2.53,-4.49 h -2.13 l 0.99,-8.65 h 0.07 z"
         class="st1" /><polygon
         style="clip-rule:evenodd;fill:#ffffff;fill-rule:evenodd"
         id="polygon38"
         points="193,16.79 193,29.14 192.9,29.14 189.88,16.79 187,16.79 187,33.7 188.93,33.7 188.93,20.61 188.98,20.61 192.15,33.7 194.88,33.7 194.88,16.79 "
         class="st1" /><path
         style="clip-rule:evenodd;fill:#ffffff;fill-rule:evenodd"
         inkscape:connector-curvature="0"
         id="path40"
         d="M 209.54,30.05 V 14.22 h -2.37 v 15.84 c 0,0.92 0.09,2.03 -1.42,2.03 -1.45,0 -1.39,-1.08 -1.39,-2.03 V 14.22 h -2.4 v 15.84 c 0,2.11 0.73,3.98 3.79,3.98 3.06,-0.01 3.79,-1.87 3.79,-3.99 z"
         class="st1" /><polygon
         style="clip-rule:evenodd;fill:#ffffff;fill-rule:evenodd"
         id="polygon42"
         points="218.1,16.79 218.1,29.14 218.01,29.14 214.99,16.79 212.11,16.79 212.11,33.7 214.05,33.7 214.05,20.61 214.1,20.61 217.26,33.7 219.99,33.7 219.99,16.79 "
         class="st1" /><rect
         style="clip-rule:evenodd;fill:#ffffff;fill-rule:evenodd"
         id="rect44"
         height="16.91"
         width="2.0799999"
         class="st1"
         y="16.790001"
         x="222.75999" /><polygon
         style="clip-rule:evenodd;fill:#ffffff;fill-rule:evenodd"
         id="polygon46"
         points="230.32,29.67 230.22,29.67 228.46,16.79 226.35,16.79 229.06,33.7 231.5,33.7 234.08,16.79 232.03,16.79 "
         class="st1" /><polygon
         style="clip-rule:evenodd;fill:#ffffff;fill-rule:evenodd"
         id="polygon48"
         points="237.61,32.01 237.61,25.77 240.51,25.77 240.51,23.99 237.61,23.99 237.61,18.48 241.04,18.48 241.04,16.79 235.53,16.79 235.53,33.7 241.19,33.7 241.19,32.01 "
         class="st1" /><path
         style="clip-rule:evenodd;fill:#ffffff;fill-rule:evenodd"
         inkscape:connector-curvature="0"
         id="path50"
         d="m 250.02,33.7 c -0.22,-0.26 -0.43,-1.49 -0.43,-2.41 v -3.48 c 0,-1.16 -0.75,-2.39 -1.55,-2.85 v -0.07 c 0.92,-0.26 1.5,-1.47 1.5,-2.47 v -3.07 c 0,-1.06 -0.99,-2.56 -2.81,-2.56 h -3.62 V 33.7 h 2.08 v -7.92 h 0.87 c 0.99,0 1.42,1.31 1.42,2.56 v 3 c 0,0.92 0.24,2.05 0.48,2.37 h 2.06 z m -2.48,-11.28 c 0,0.82 -0.44,1.47 -1.23,1.47 h -1.11 v -5.41 h 1.02 c 0.89,0 1.33,0.82 1.33,1.52 v 2.42 z"
         class="st1" /><path
         style="clip-rule:evenodd;fill:#ffffff;fill-rule:evenodd"
         inkscape:connector-curvature="0"
         id="path52"
         d="m 257.77,30.08 c 0,-4.16 -4.08,-6.83 -4.08,-9.32 0,-1.64 0.15,-2.56 1.11,-2.56 0.7,0 1.14,0.58 1.14,2.32 v 1.69 h 1.81 v -1.62 c 0,-3.04 -0.94,-4.08 -2.78,-4.08 -2.32,0 -3.24,1.11 -3.24,4.32 0,3.38 4.04,6.13 4.04,9.16 0,1.74 -0.36,2.32 -1.26,2.32 -0.87,0 -1.04,-0.72 -1.09,-2.36 v -2.2 h -2 v 2.22 c 0,2.15 0.58,4.03 3.19,4.03 2.56,-0.01 3.16,-1.53 3.16,-3.92 z"
         class="st1" /><rect
         style="clip-rule:evenodd;fill:#ffffff;fill-rule:evenodd"
         id="rect54"
         height="16.91"
         width="2.0799999"
         class="st1"
         y="16.790001"
         x="259.97" /><polygon
         style="clip-rule:evenodd;fill:#ffffff;fill-rule:evenodd"
         id="polygon56"
         points="263.63,16.79 263.63,18.48 265.95,18.48 265.95,33.7 268.06,33.7 268.06,18.48 270.37,18.48 270.37,16.79 "
         class="st1" /><polygon
         style="clip-rule:evenodd;fill:#ffffff;fill-rule:evenodd"
         id="polygon58"
         points="275.3,23.36 275.26,23.36 273.42,16.79 271.22,16.79 274.24,26.35 274.24,33.7 276.35,33.7 276.35,26.31 279.37,16.79 277.14,16.79 "
         class="st1" /></g><g
       id="g72"><g
         id="g68"><path
           style="fill:#ffffff"
           inkscape:connector-curvature="0"
           id="path62"
           d="m 36.36,19.54 v 0 -4.99 c 0,-3.37 -2.73,-6.1 -6.1,-6.1 -3.37,0 -6.11,2.73 -6.11,6.1 v 19.4 c 0,3.37 2.73,6.1 6.11,6.1 3.37,0 6.1,-2.73 6.1,-6.1 v -6.21 0 h -4.31 v 6.35 c 0,0.99 -0.8,1.79 -1.79,1.79 -0.99,0 -1.79,-0.8 -1.79,-1.79 V 14.4 c 0,-0.99 0.8,-1.79 1.79,-1.79 0.99,0 1.79,0.8 1.79,1.79 v 5.14 z"
           class="st2" /><g
           id="g66"><path
             style="fill:#ffffff"
             inkscape:connector-curvature="0"
             id="path64"
             d="m 20,14.54 c 0,-3.32 -2.7,-6.02 -6.02,-6.02 -3.32,0 -6.02,2.7 -6.02,6.02 v 19.4 c 0,3.32 2.7,6.02 6.02,6.02 3.32,0 6.02,-2.7 6.02,-6.02 z m -4.15,19.54 c 0,1.03 -0.84,1.87 -1.87,1.87 -1.03,0 -1.87,-0.84 -1.87,-1.87 V 14.4 c 0,-1.03 0.84,-1.87 1.87,-1.87 1.03,0 1.87,0.84 1.87,1.87 z"
             class="st2" /></g></g><path
         style="clip-rule:evenodd;fill:#ffffff;fill-rule:evenodd"
         inkscape:connector-curvature="0"
         id="path70"
         d="M 44.24,9.95 C 44.24,9.72 44.19,9.44 44.1,9.13 43.66,7.42 41.93,4.85 38.72,4.88 L 22.19,0 22.12,0.02 22.05,0 5.52,4.88 C 2.32,4.85 0.58,7.42 0.14,9.13 0.05,9.44 0,9.71 0,9.95 L 0.01,24.57 0,37.96 c -0.05,2.57 2.2,5.41 4.97,5.59 0.16,0.02 0.32,0.03 0.49,0.03 l 15.61,4.45 h 0.28 v 0 h 0.76 0.76 v 0 h 0.28 l 15.61,-4.45 c 0.17,0 0.33,-0.01 0.49,-0.03 2.78,-0.18 5.02,-3.02 4.97,-5.59 L 44.21,24.57 Z m -2.58,26.44 c -0.02,1.81 -0.41,4.36 -3.07,4.66 -0.06,0 -0.12,0.01 -0.19,0.01 l -0.06,0.02 c -0.15,0.01 -0.3,0.02 -0.46,0.01 L 22.11,45.66 6.35,41.08 c -0.16,0 -0.31,0 -0.46,-0.01 L 5.83,41.05 c -0.07,0 -0.13,0 -0.19,-0.01 C 2.98,40.73 2.59,38.19 2.57,36.38 L 2.56,24.13 2.57,11.53 c 0,-0.16 0,-0.34 0.01,-0.54 C 2.71,9.56 3.38,7.46 6.32,7.35 L 19.9,3.44 c 0.05,0.16 0.55,1.48 2.17,1.48 0.02,0 0.03,0 0.05,-0.01 0.02,0 0.03,0.01 0.05,0.01 1.62,0 2.12,-1.32 2.17,-1.48 l 13.58,3.92 c 2.94,0.1 3.61,2.21 3.74,3.64 0.01,0.19 0.01,0.38 0.01,0.54 l 0.01,12.6 z"
         class="st1" /></g></g></svg>