<?xml version="1.0" encoding="utf-8"?>
<svg version="1.1" id="Layer_1" x="0px" y="0px" viewBox="15 15 70 72" style="enable-background:new 0 0 100 100;" xmlns="http://www.w3.org/2000/svg">
  <style type="text/css">
	.st0{fill:#FFFFFF;}
	.st1{fill:#80191F;}
</style>
  <circle class="st0" cx="50" cy="50.2" r="32.8"/>
  <g>
    <path class="st1" d="M72.6,49.6h-0.5c0.2,2.6,0.4,5.5,0.4,8.3c0,2.4-0.1,4.7-0.5,6.5c-0.1-0.1-0.3-0.2-0.5-0.4&#10;&#9;&#9;c-0.2-0.2-0.5-0.3-0.7-0.4c-0.2-0.1-0.4-0.2-0.7-0.3c-0.4-0.1-1-0.3-1.7-0.3c-0.2,0-0.4,0-0.6,0.1c-0.4,0.1-1,0.2-1.6,0.3&#10;&#9;&#9;c-0.5,0.1-1,0.2-1,0.2L63,64.1l-0.1,0l0,0l0,0c0,0-0.1,0-0.4,0c-0.2,0-0.4,0-0.7-0.1c-0.4-0.1-0.9-0.3-1.2-0.4&#10;&#9;&#9;c-0.2-0.1-0.3-0.1-0.4-0.2c-0.1,0-0.1-0.1-0.1-0.1l0,0L59,62.9l-0.1,0l-1.3,0.3c-0.1,0-0.2,0.1-0.2,0.2l0,0c0,0.1,0,0.2-0.1,0.3&#10;&#9;&#9;c0,0.1-0.1,0.1-0.1,0.2l0,0l0,0l0,0h0c-0.1,0-0.5-0.1-0.7-0.2c-0.2-0.1-0.4-0.1-0.5-0.2c0,0-0.2-0.1-0.3-0.2&#10;&#9;&#9;c-0.2-0.1-0.5-0.3-0.7-0.4c-0.1-0.1-0.3-0.2-0.5-0.2c-0.4-0.1-0.8-0.2-1.1-0.2c0-0.1-0.1-0.1-0.1-0.1c-0.1-0.1-0.2-0.1-0.3-0.2&#10;&#9;&#9;c-0.3-0.1-0.7-0.2-1-0.3c-0.4-0.1-0.7-0.1-0.7-0.1l-0.1,0l-1,0.1l0,0c0,0,0,0-0.1,0c-0.1,0-0.2,0-0.3,0h0c-0.1,0-0.2,0-0.3,0&#10;&#9;&#9;c-0.1,0-0.2,0-0.2-0.1c-0.3-0.2-0.6-0.4-1.1-0.6c-0.3-0.1-0.6-0.1-0.8-0.2c-0.1,0-0.2,0-0.2-0.1C47,61,47,61,47,60.9&#10;&#9;&#9;c-0.1-0.3-0.4-0.5-0.6-0.7c-0.2-0.2-0.4-0.4-0.4-0.4l-0.1,0l-1.5-0.2l-0.4-0.2l0,0L42.1,59v-9.4h-0.5v9.6c0,0.1,0.1,0.2,0.2,0.2&#10;&#9;&#9;l1.8,0.4l0.4,0.2l0.1,0l1.5,0.2c0,0,0,0,0.1,0.1c0.1,0.1,0.3,0.2,0.5,0.4c0.2,0.2,0.3,0.3,0.4,0.4c0.1,0.1,0.2,0.3,0.3,0.3&#10;&#9;&#9;c0.2,0.1,0.4,0.1,0.5,0.2c0.2,0,0.4,0.1,0.5,0.1c0.5,0.2,0.8,0.4,1,0.6c0.1,0.1,0.3,0.1,0.4,0.1c0.1,0,0.3,0,0.4,0&#10;&#9;&#9;c0.2,0,0.4,0,0.4,0l1-0.1c0.1,0,0.3,0.1,0.6,0.1c0.3,0.1,0.8,0.2,0.9,0.3c0,0,0.1,0,0.1,0.1c0,0,0,0.1,0,0.1c0,0.1,0.1,0.2,0.2,0.2&#10;&#9;&#9;c0,0,0.1,0,0.2,0c0.2,0,0.5,0.1,0.7,0.1c0.3,0.1,0.5,0.1,0.6,0.2c0.5,0.3,1.1,0.6,1.1,0.6l0,0c0,0,0.2,0.1,0.5,0.2&#10;&#9;&#9;c0.3,0.1,0.6,0.2,0.9,0.2c0.1,0,0.1,0,0.2,0c0.1-0.1,0.2-0.2,0.3-0.2c0.1-0.2,0.2-0.4,0.2-0.5l1.1-0.3l1,0.4c0.1,0.1,1,0.5,1.9,0.7&#10;&#9;&#9;c0.3,0.1,0.6,0.1,0.8,0.1h0c0.3,0,0.5-0.1,0.6-0.1l2.2-0.4c0,0,1.7-0.3,2.6-0.5c0.2,0,0.4-0.1,0.5-0.1h0c0.6,0,1.1,0.2,1.6,0.3&#10;&#9;&#9;c0.1,0,0.3,0.1,0.5,0.2c0.3,0.2,0.7,0.4,1,0.6c0.1,0.1,0.3,0.2,0.3,0.3C71.9,65,72,65,72,65c0,0,0.1,0.1,0.1,0.1c0,0,0.1,0,0.1,0&#10;&#9;&#9;c0.1,0,0.1-0.1,0.2-0.2c0.4-1.9,0.6-4.4,0.6-7C72.9,55.1,72.8,52.2,72.6,49.6"/>
    <path class="st1" d="M58.1,49.6h-0.9l-0.7,1.3l-2,0.3c-0.1,0-0.2,0.1-0.2,0.2c0,0.1,0,0.2,0.1,0.2l1.5,1.4l-0.3,2&#10;&#9;&#9;c0,0.1,0,0.2,0.1,0.2c0,0,0.1,0,0.1,0c0,0,0.1,0,0.1,0l1.8-0.9l1.8,0.9c0,0,0.1,0,0.1,0c0.1,0,0.1,0,0.1,0c0.1-0.1,0.1-0.1,0.1-0.2&#10;&#9;&#9;l-0.3-2l1.5-1.4c0.1-0.1,0.1-0.2,0.1-0.2c0-0.1-0.1-0.2-0.2-0.2l-2-0.3L58.1,49.6 M56,54.7l0.3-1.6c0-0.1,0-0.2-0.1-0.2L55,51.6&#10;&#9;&#9;l1.7-0.2c0.1,0,0.1-0.1,0.2-0.1l0.7-1.5l0.7,1.5c0,0.1,0.1,0.1,0.2,0.1l1.7,0.2L59,52.8c-0.1,0.1-0.1,0.1-0.1,0.2l0.3,1.6l-1.5-0.8&#10;&#9;&#9;c0,0-0.1,0-0.1,0c0,0-0.1,0-0.1,0L56,54.7"/>
    <path class="st1" d="M71.5,41.7H25.3c-0.1,0-0.1,0-0.2,0.1c0,0-0.1,0.1-0.1,0.2h0.2H25v3.5c0,0.1,0,0.1,0.1,0.2s0.1,0.1,0.2,0.1&#10;&#9;&#9;h16.4v3.9h0.5v-4.2c0-0.1,0-0.1-0.1-0.2c0,0-0.1-0.1-0.2-0.1H25.5v-3h45.8c0,0.2,0.1,0.7,0.2,1.2c0.2,1.4,0.4,3.6,0.6,6.2h0.5&#10;&#9;&#9;c-0.3-4.3-0.8-7.7-0.8-7.7C71.8,41.8,71.7,41.7,71.5,41.7"/>
  </g>
</svg>