<?xml version="1.0" encoding="utf-8"?>
<svg version="1.1" id="Layer_1" x="0px" y="0px" viewBox="15 15 70 72" style="enable-background:new 0 0 100 100;" xmlns="http://www.w3.org/2000/svg">
  <style type="text/css">
	.st0{fill:#FFFFFF;}
	.st1{fill:#80191F;}
</style>
  <circle class="st0" cx="50" cy="50.9" r="32.8"/>
  <g>
    <path class="st1" d="M51.6,39.7c-1.3,0-2.4,1.1-2.4,2.4c0,1.3,1.1,2.4,2.4,2.4c1.3,0,2.4-1.1,2.4-2.4h-0.4h-0.4&#10;&#9;&#9;c0,1-0.8,1.7-1.7,1.7c-1,0-1.7-0.8-1.7-1.7c0-1,0.8-1.7,1.7-1.7c1,0,1.7,0.8,1.7,1.7h0.4H54C54,40.8,52.9,39.7,51.6,39.7 M54,42.1&#10;&#9;&#9;L54,42.1"/>
    <path class="st1" d="M45.7,35.5c-1.3,0-2.4,1.1-2.4,2.4c0,1.3,1.1,2.4,2.4,2.4c1.3,0,2.4-1.1,2.4-2.4h-0.4h-0.4&#10;&#9;&#9;c0,1-0.8,1.7-1.7,1.7c-1,0-1.7-0.8-1.7-1.7c0-1,0.8-1.7,1.7-1.7c1,0,1.7,0.8,1.7,1.7h0.4h0.4C48.1,36.6,47,35.5,45.7,35.5"/>
    <path class="st1" d="M52.9,26.6c-2.7,0-4.8,2.2-4.8,4.8c0,2.7,2.2,4.8,4.8,4.8c2.7,0,4.8-2.2,4.8-4.8h-0.4H57&#10;&#9;&#9;c0,1.1-0.5,2.2-1.2,2.9c-0.7,0.7-1.8,1.2-2.9,1.2c-1.1,0-2.2-0.5-2.9-1.2c-0.7-0.7-1.2-1.8-1.2-2.9c0-1.1,0.5-2.2,1.2-2.9&#10;&#9;&#9;c0.7-0.7,1.8-1.2,2.9-1.2c1.1,0,2.2,0.5,2.9,1.2c0.7,0.7,1.2,1.8,1.2,2.9h0.4h0.4C57.7,28.8,55.5,26.6,52.9,26.6 M57.7,31.4&#10;&#9;&#9;L57.7,31.4"/>
    <path class="st1" d="M53.8,49.4h-7.6v8.1l-1.8,4.1c0.1-0.1,0.2-0.2,0.3-0.2h0.5l1.6-3.7l0-0.1v-8.2h6.2v8.2l0,0.1l1.6,3.7h0.5&#10;&#9;&#9;c0.1,0,0.3,0.1,0.3,0.2l5.8,13.3l-7.6-17.3V49.4 M45,62.1L45,62.1l-5.5,12.6L45,62.1"/>
    <path class="st1" d="M54.4,48.7h-8.7c-0.2,0-0.4,0.2-0.4,0.4c0,0.2,0.2,0.4,0.4,0.4h0.6h7.6h0.6c0.2,0,0.4-0.2,0.4-0.4&#10;&#9;&#9;C54.8,48.8,54.6,48.7,54.4,48.7"/>
    <path class="st1" d="M55.3,61.4h-0.5h-9.5h-0.5c-0.1,0-0.3,0.1-0.3,0.2v0l-5.8,13.3c0,0.1,0,0.2,0,0.3c0.1,0.1,0.2,0.2,0.3,0.2&#10;&#9;&#9;h22.1c0.1,0,0.2-0.1,0.3-0.2c0.1-0.1,0.1-0.2,0-0.3l-5.8-13.3C55.6,61.5,55.4,61.4,55.3,61.4 M45,62.1h10.1l5.5,12.6H39.5L45,62.1"/>
  </g>
</svg>